<svg preserveAspectRatio="none" width="100%" height="100%" overflow="visible" style="display: block;" viewBox="0 0 15.3324 14" fill="none" xmlns="http://www.w3.org/2000/svg">
<path id="Icon" d="M1 1.66045V5.66045M1 5.66045H5M1 5.66045L4.09333 2.75378C5.01394 1.83473 6.2083 1.23976 7.49645 1.05853C8.7846 0.877291 10.0968 1.11961 11.2352 1.74896C12.3737 2.37831 13.2768 3.36061 13.8084 4.54785C14.3401 5.73509 14.4715 7.06295 14.1828 8.33136C13.8942 9.59977 13.2011 10.74 12.2081 11.5803C11.2151 12.4206 9.97583 12.9154 8.67714 12.9901C7.37846 13.0648 6.09065 12.7155 5.00777 11.9947C3.92489 11.2739 3.1056 10.2207 2.67333 8.99378" stroke="var(--stroke-0, #B3B3B3)" stroke-width="2" stroke-linecap="round" stroke-linejoin="round"/>
</svg>
